HIERARCHY
ROOT Hips
{
	OFFSET 0.000000 0.000000 0.000000
	CHANNELS 6 Xposition Yposition Zposition Zrotation Yrotation Xrotation 
	JOINT LHipJoint
	{
		OFFSET 0.000000 0.000000 0.000000
		CHANNELS 3 Zrotation Yrotation Xrotation
		JOINT LeftUpLeg
		{
			OFFSET 1.363060 -1.794630 0.839290
			CHANNELS 3 Zrotation Yrotation Xrotation
			JOINT LeftLeg
			{
				OFFSET 2.448110 -6.726130 0.000000
				CHANNELS 3 Zrotation Yrotation Xrotation
				JOINT LeftFoot
				{
					OFFSET 2.562200 -7.039590 0.000000
					CHANNELS 3 Zrotation Yrotation Xrotation
					JOINT LeftToeBase
					{
						OFFSET 0.157640 -0.433110 2.322550
						CHANNELS 3 Zrotation Yrotation Xrotation
						End Site
						{
							OFFSET 0.000000 0.000000 0.000000
						}
					}
				}
			}
		}
	}
	JOINT RHipJoint
	{
		OFFSET 0.000000 0.000000 0.000000
		CHANNELS 3 Zrotation Yrotation Xrotation
		JOINT RightUpLeg
		{
			OFFSET -1.305520 -1.794630 0.839290
			CHANNELS 3 Zrotation Yrotation Xrotation
			JOINT RightLeg
			{
				OFFSET -2.542530 -6.985550 0.000000
				CHANNELS 3 Zrotation Yrotation Xrotation
				JOINT RightFoot
				{
					OFFSET -2.568260 -7.056230 0.000000
					CHANNELS 3 Zrotation Yrotation Xrotation
					JOINT RightToeBase
					{
						OFFSET -0.164730 -0.452590 2.363150
						CHANNELS 3 Zrotation Yrotation Xrotation
						End Site
						{
							OFFSET 0.000000 0.000000 0.000000
						}
					}
				}
			}
		}
	}
	JOINT LowerBack
	{
		OFFSET 0.000000 0.000000 0.000000
		CHANNELS 3 Zrotation Yrotation Xrotation
		JOINT Spine
		{
			OFFSET 0.028270 2.035590 -0.193380
			CHANNELS 3 Zrotation Yrotation Xrotation
			JOINT Spine1
			{
				OFFSET 0.056720 2.048850 -0.042750
				CHANNELS 3 Zrotation Yrotation Xrotation
				JOINT Neck
				{
					OFFSET 0.000000 0.000000 0.000000
					CHANNELS 3 Zrotation Yrotation Xrotation
					JOINT Neck1
					{
						OFFSET -0.054170 1.746240 0.172020
						CHANNELS 3 Zrotation Yrotation Xrotation
						JOINT Head
						{
							OFFSET 0.104070 1.761360 -0.123970
							CHANNELS 3 Zrotation Yrotation Xrotation
							End Site
							{
								OFFSET 0.000000 0.000000 0.000000
							}
						}
					}
				}
				JOINT LeftShoulder
				{
					OFFSET 0.000000 0.000000 0.000000
					CHANNELS 3 Zrotation Yrotation Xrotation
					JOINT LeftArm
					{
						OFFSET 3.362410 1.200890 -0.311210
						CHANNELS 3 Zrotation Yrotation Xrotation
						JOINT LeftForeArm
						{
							OFFSET 4.983000 -0.000000 -0.000000
							CHANNELS 3 Zrotation Yrotation Xrotation
							JOINT LeftHand
							{
								OFFSET 3.483560 -0.000000 -0.000000
								CHANNELS 3 Zrotation Yrotation Xrotation
								JOINT LeftFingerBase
								{
									OFFSET 0.000000 0.000000 0.000000
									CHANNELS 3 Zrotation Yrotation Xrotation
									JOINT LeftHandIndex1
									{
										OFFSET 0.715260 -0.000000 -0.000000
										CHANNELS 3 Zrotation Yrotation Xrotation
										End Site
										{
											OFFSET 0.000000 0.000000 0.000000
										}
									}
								}
								JOINT LThumb
								{
									OFFSET 0.000000 0.000000 0.000000
									CHANNELS 3 Zrotation Yrotation Xrotation
									End Site
									{
										OFFSET 0.000000 0.000000 0.000000
									}
								}
							}
						}
					}
				}
				JOINT RightShoulder
				{
					OFFSET 0.000000 0.000000 0.000000
					CHANNELS 3 Zrotation Yrotation Xrotation
					JOINT RightArm
					{
						OFFSET -3.136600 1.374050 -0.404650
						CHANNELS 3 Zrotation Yrotation Xrotation
						JOINT RightForeArm
						{
							OFFSET -5.241900 -0.000000 -0.000000
							CHANNELS 3 Zrotation Yrotation Xrotation
							JOINT RightHand
							{
								OFFSET -3.444170 -0.000000 -0.000000
								CHANNELS 3 Zrotation Yrotation Xrotation
								JOINT RightFingerBase
								{
									OFFSET 0.000000 0.000000 0.000000
									CHANNELS 3 Zrotation Yrotation Xrotation
									JOINT RightHandIndex1
									{
										OFFSET -0.622530 -0.000000 -0.000000
										CHANNELS 3 Zrotation Yrotation Xrotation
										End Site
										{
											OFFSET 0.000000 0.000000 0.000000
										}
									}
								}
								JOINT RThumb
								{
									OFFSET 0.000000 0.000000 0.000000
									CHANNELS 3 Zrotation Yrotation Xrotation
									End Site
									{
										OFFSET 0.000000 0.000000 0.000000
									}
								}
							}
						}
					}
				}
			}
		}
	}
}
MOTION
Frames: 4
Frame Time: 0.008333
1.024491 16.617036 -0.615084 20.791228 78.207210 26.665905 -12.446504 5.891708 -0.256366 -1.423973 16.439239 -2.681084 -0.329208 2.724262 41.769654 0.977885 -6.168260 23.219779 -3.495800 -0.000000 -84.471799 7.736157 -0.508111 2.195763 17.772743 -0.820280 -34.610612 1.759967 -0.675819 26.570620 -4.260517 -15.410708 -14.885356 -179.104600 -0.000000 -6.814400 4.304917 -7.528156 -3.908727 1.168785 -7.911049 -3.384419 -3.443940 -8.051598 1.611755 7.594800 -20.760947 -10.848069 -1.046207 -0.022337 -0.751698 0.000000 0.000000 0.000000 11.445319 1.736081 0.694648 -18.837604 -7.101697 -7.701523 -0.375958 -80.786731 -0.056845 6.474873 2.947287 0.141443 -0.068975 0.475718 -0.000000 0.000000 0.000000 0.000000 0.000000 0.000000 0.000000 7.641115 -19.820308 1.983169 57.723700 -33.800996 -30.111873 3.523319 33.240075 -0.011128 -1.110952 -3.515832 0.039249 0.176081 -0.053013 -0.000000 0.000000 0.000000 0.000000 0.000000 0.000000 0.000000 
1.187205 16.560150 -0.568844 17.382969 78.048072 23.150975 -12.555430 5.839311 -0.356019 -0.329987 16.892384 -3.956953 -0.202570 2.891317 44.894404 1.111605 -5.456666 23.733114 -3.283400 -0.000000 -80.077200 7.711631 -0.543064 1.965519 18.728298 -1.186630 -35.139081 1.769617 -0.958573 29.477818 -4.158526 -14.701368 -16.130812 -178.693900 -0.000000 -8.386700 4.947540 -7.342189 -3.589242 1.231892 -7.767048 -3.330961 -3.677251 -7.900547 1.593436 7.786056 -20.735765 -11.075429 -1.174925 -0.029675 -0.819381 0.000000 0.000000 0.000000 10.708886 2.286878 0.706656 -18.891110 -7.812271 -8.434777 -0.413918 -81.628309 -0.060542 6.804106 2.704993 0.133572 -0.073189 0.485224 -0.000000 0.000000 0.000000 0.000000 0.000000 0.000000 0.000000 8.193886 -19.707277 2.041049 58.592987 -32.738060 -30.544938 3.481332 33.351906 -0.011025 -1.430906 -3.434115 0.047653 0.173516 -0.053572 -0.000000 0.000000 0.000000 0.000000 0.000000 0.000000 0.000000 
1.343301 16.499885 -0.521798 14.078809 77.866812 19.717183 -12.611129 5.749015 -0.487316 0.681673 17.242360 -5.233464 -0.064902 3.078643 48.089918 1.247870 -4.091214 23.796942 -2.707400 0.000001 -75.324200 7.722219 -0.566654 1.730220 19.631247 -1.542502 -35.513275 1.766699 -1.214281 32.173501 -4.084948 -14.115421 -17.434356 -178.288800 -0.000001 -9.710800 5.549190 -7.157297 -3.202229 1.278486 -7.620437 -3.263675 -3.939088 -7.746767 1.557807 8.033153 -20.665954 -11.294364 -1.322267 -0.038803 -0.885641 0.000000 0.000000 0.000000 10.008210 2.747975 0.712171 -19.038952 -8.463508 -9.184817 -0.450167 -82.495662 -0.064544 7.160902 2.413088 0.121507 -0.077998 0.495124 -0.000000 0.000000 0.000000 0.000000 0.000000 0.000000 0.000000 8.854235 -19.555025 2.102697 59.489845 -31.564787 -30.910774 3.439472 33.413147 -0.011144 -1.735583 -3.443702 0.056752 0.170344 -0.053434 -0.000000 0.000000 0.000000 0.000000 0.000000 0.000000 0.000000 
1.492959 16.437120 -0.473441 10.990968 77.670957 16.479526 -12.626028 5.620216 -0.645259 1.594629 17.478215 -6.512236 0.090680 3.282606 51.325736 1.390598 -2.108305 23.372757 -1.802500 0.000000 -70.378400 7.757296 -0.584694 1.493843 20.466121 -1.875533 -35.724818 1.757010 -1.442127 34.630560 -4.045294 -13.669276 -18.798294 -177.881700 -0.000001 -10.814700 6.089157 -6.979846 -2.760135 1.305268 -7.476224 -3.185663 -4.228891 -7.595207 1.503009 8.332571 -20.540315 -11.494565 -1.491476 -0.050181 -0.947506 0.000000 0.000000 0.000000 9.349676 3.100430 0.712797 -19.295170 -9.016543 -9.927444 -0.483345 -83.394097 -0.068794 7.543734 2.067793 0.104351 -0.083521 0.505142 -0.000000 0.000000 0.000000 0.000000 0.000000 0.000000 0.000000 9.629711 -19.355273 2.164569 60.390828 -30.288683 -31.199063 3.396555 33.419632 -0.011384 -2.034907 -3.513331 0.066848 0.166533 -0.052838 -0.000000 0.000000 0.000000 0.000000 0.000000 0.000000 0.000000 
